<svg id="Layer_1" data-name="Layer 1" xmlns="http://www.w3.org/2000/svg" viewBox="0 0 98.5 36.31"><title>Artboard 1</title><path d="M24.82,26H0L20,23.3l4.22-2.17A40.29,40.29,0,0,0,24.82,26Z"/><path d="M27.34,7.94,23.15,4.43,3.18,0h38a19.76,19.76,0,0,0,3.59,4.48A90.72,90.72,0,0,0,27.34,7.94Z"/><path d="M41.18,36.31h-38l20-4.43,6.06-5.06s1.74-.85,9-.85c3.64,0,8.65.21,15.52.85A21,21,0,0,0,41.18,36.31Z"/><path d="M26.74,26.4a39.43,39.43,0,0,1,0-16.38A87.67,87.67,0,0,1,53.42,5.86,89.31,89.31,0,0,1,98.5,18.2,89.22,89.22,0,0,1,53.42,30.55c-1.28,0-2.55,0-3.82-.09a21.07,21.07,0,0,1,4.59-1.9L64.39,26,53.91,25c-6.14-.56-11.41-.85-15.69-.85-7.14,0-9.31.78-9.81,1l-.2.1-.18.15S26.76,26.41,26.74,26.4Z"/></svg>